PathFileType	4	(X/Y/Z)	/Users/itak/Documents/Research/Walk-IL/dataset/trc/00281_00010.trc
DataRate	CameraRate	NumFrames	NumMarkers	Units	OrigDataRate	OrigDataStartFrame	OrigNumFrames
100.000000	100.000000	4	54	mm	100.000000	76	614
Frame#	Time	RPSI			LPSI			L3			STRN			T10			C7			CLAV			RBAK			LBAK			LSHO			LUPA			LAEL			LAOL			LWTS			LWPS			LFRA			LIFD			LHPS			LHTS			RSHO			RUPA			RAEL			RAOL			RWTS			RWPS			RFRA			RIFD			RHTS			RHPS			RBHD			LFHD			RFHD			LBHD			LHIP			RASI			LASI			LKNE			LTHI			LANK			LTIP			LTOE			LMT1			LMT5			LHEE			RKNE			RTHI			RANK			RTIP			RTOE			RMT1			RMT5			RHEE			RHIP			*53			
		X1	Y1	Z1	X2	Y2	Z2	X3	Y3	Z3	X4	Y4	Z4	X5	Y5	Z5	X6	Y6	Z6	X7	Y7	Z7	X8	Y8	Z8	X9	Y9	Z9	X10	Y10	Z10	X11	Y11	Z11	X12	Y12	Z12	X13	Y13	Z13	X14	Y14	Z14	X15	Y15	Z15	X16	Y16	Z16	X17	Y17	Z17	X18	Y18	Z18	X19	Y19	Z19	X20	Y20	Z20	X21	Y21	Z21	X22	Y22	Z22	X23	Y23	Z23	X24	Y24	Z24	X25	Y25	Z25	X26	Y26	Z26	X27	Y27	Z27	X28	Y28	Z28	X29	Y29	Z29	X30	Y30	Z30	X31	Y31	Z31	X32	Y32	Z32	X33	Y33	Z33	X34	Y34	Z34	X35	Y35	Z35	X36	Y36	Z36	X37	Y37	Z37	X38	Y38	Z38	X39	Y39	Z39	X40	Y40	Z40	X41	Y41	Z41	X42	Y42	Z42	X43	Y43	Z43	X44	Y44	Z44	X45	Y45	Z45	X46	Y46	Z46	X47	Y47	Z47	X48	Y48	Z48	X49	Y49	Z49	X50	Y50	Z50	X51	Y51	Z51	X52	Y52	Z52	X53	Y53	Z53	X54	Y54	Z54	

77	0.76	493.4178161621094	988.5613403320312	1087.963745117188	426.9400329589844	983.54931640625	925.18896484375	478.3886413574219	1053.501586914062	995.2566528320312	702.0092163085938	1229.4208984375	897.13427734375	457.8659362792969	1163.593505859375	998.3350830078125	479.9573974609375	1407.885375976562	948.8638305664062	636.8756103515625	1328.504638671875	907.3760986328125	470.3519897460938	1275.6875	1044.732543945312	429.6795654296875	1360.975830078125	862.0307006835938	496.7305603027344	1363.440673828125	784.7195434570312	448.379638671875	1244.437866210938	730.5184936523438	453.3935852050781	1041.21630859375	714.8878173828125	417.7077331542969	1027.627563476562	793.8779296875	562.0663452148438	831.7435913085938	723.9578857421875	507.9961853027344	816.7439575195312	678.4630737304688	470.273681640625	941.7743530273438	700.31689453125	581.2085571289062	645.3212280273438	717.4558715820312	520.7266845703125	728.27392578125	676.4083862304688	584.483642578125	735.7160034179688	694.288818359375	598.7301635742188	1406.754272460938	1073.55029296875	613.841064453125	1362.469360351562	1147.91650390625	599.68505859375	1109.44580078125	1237.722412109375	544.42919921875	1093.617797851562	1158.921875	669.8355712890625	873.1729736328125	1194.799072265625	641.4159545898438	878.421630859375	1275.354125976562	620.8673706054688	1041.779907226562	1252.316284179688	664.9852294921875	690.7044677734375	1212.69140625	698.12548828125	758.5039672851562	1220.830322265625	659.7085571289062	766.3056030273438	1279.4638671875	553.1627807617188	1584.274658203125	987.2157592773438	620.5234985351562	1584.770751953125	785.3043212890625	674.318603515625	1595.8095703125	859.5723876953125	466.8692626953125	1555.745727539062	868.418212890625	453.2181091308594	932.5728149414062	810.7610473632812	708.7548217773438	935.8421630859375	1036.088989257812	599.16259765625	933.43505859375	809.2862548828125	608.4944458007812	469.5626831054688	867.1641845703125	565.4715576171875	604.437255859375	825.5845947265625	565.264892578125	40.90741348266602	987.5875244140625	587.1259765625	240.8075408935547	919.1396484375	782.876953125	33.52398300170898	972.2186889648438	729.3933715820312	26.25910758972168	1033.859130859375	677.9896850585938	39.5695915222168	935.0711059570312	544.923095703125	33.14582824707031	1058.477172851562	767.0151977539062	486.2274475097656	1088.503295898438	713.8956298828125	737.9246826171875	1118.269897460938	454.0800170898438	227.8322143554688	1283.066284179688	712.3489379882812	380.6649780273438	1115.70751953125	518.2037963867188	77.98070526123047	1169.89501953125	468.1333923339844	122.9339752197266	1155.051025390625	499.1391906738281	132.5321197509766	1270.058715820312	406.19580078125	273.012939453125	1254.914306640625	625.7570190429688	934.6061401367188	1146.286743164062	nan	nan	nan	
78	0.77	502.4906005859375	988.8555908203125	1085.116943359375	431.9827270507812	983.6388549804688	924.1095581054688	484.7164916992188	1053.923828125	992.364013671875	706.8610229492188	1230.066650390625	890.459228515625	463.8999938964844	1164.424682617188	995.5103759765625	485.8740234375	1408.641723632812	945.7635498046875	641.9427490234375	1329.165283203125	902.0805053710938	477.4841918945312	1276.285888671875	1041.44970703125	434.5632934570312	1361.9755859375	859.426513671875	500.293212890625	1364.320556640625	781.4487915039062	452.1523742675781	1245.262451171875	727.1453857421875	459.5736999511719	1042.389770507812	709.6058349609375	424.1848754882812	1027.427001953125	788.6044311523438	573.2675170898438	835.7996826171875	715.8917236328125	519.7033081054688	820.1369018554688	670.07666015625	478.6886901855469	943.79833984375	693.7485961914062	597.486083984375	650.1015625	705.750732421875	534.7910766601562	732.1260986328125	666.3935546875	598.309326171875	741.0255737304688	684.4115600585938	606.3228149414062	1407.22021484375	1068.90673828125	622.1583251953125	1362.908569335938	1142.93359375	606.9293823242188	1110.1044921875	1232.877685546875	551.3939208984375	1094.536987304688	1154.216674804688	675.9182739257812	873.4954223632812	1190.05859375	647.3094482421875	878.8192138671875	1270.587768554688	627.7500610351562	1042.321044921875	1247.499633789062	670.5185546875	691.1432495117188	1207.947998046875	703.7713012695312	758.745849609375	1216.181396484375	665.234619140625	766.7455444335938	1274.728149414062	560.9974365234375	1585.1806640625	982.4668579101562	625.6873168945312	1584.406494140625	779.7088623046875	680.5328369140625	1595.32763671875	853.218017578125	473.0004577636719	1556.85791015625	865.015869140625	455.4848022460938	932.600830078125	809.1589965820312	716.5524291992188	936.6524658203125	1027.798706054688	601.2893676757812	934.0076293945312	803.765625	608.1704711914062	469.071044921875	865.6058349609375	565.8258056640625	604.039306640625	823.807861328125	565.2130126953125	40.84128189086914	987.655517578125	586.8754272460938	240.6634826660156	918.6808471679688	782.8286743164062	33.56335830688477	972.1832885742188	729.4168701171875	26.31923294067383	1033.82177734375	677.9528198242188	39.57184219360352	935.0098876953125	544.910888671875	33.16787719726562	1058.670166015625	783.8441162109375	490.1567993164062	1073.278564453125	726.6466674804688	740.5889282226562	1108.030151367188	484.7512817382812	221.6863555908203	1276.50146484375	732.4954833984375	382.5757446289062	1101.100952148438	554.5006103515625	76.83557891845703	1160.494506835938	501.4307250976562	118.555419921875	1147.247680664062	535.0955810546875	129.7254180908203	1261.419311523438	433.5531005859375	264.4094543457031	1250.1181640625	636.5038452148438	935.4290771484375	1140.061157226562	nan	nan	nan	
79	0.78	511.7430114746094	989.1172485351562	1082.273193359375	437.1299438476562	983.6552734375	923.201904296875	491.0349731445312	1054.31005859375	989.577880859375	711.5272827148438	1230.698364257812	883.6229248046875	469.9175109863281	1165.248413085938	992.7169799804688	491.779541015625	1409.382080078125	942.6040649414062	646.8709716796875	1329.824829101562	896.6708374023438	484.6475219726562	1276.841674804688	1038.146118164062	439.2721862792969	1362.977416992188	856.900390625	503.6789855957031	1365.228393554688	778.1548461914062	455.6863098144531	1246.083251953125	723.8258666992188	465.4432678222656	1043.67578125	704.4994506835938	430.5423583984375	1027.311157226562	783.5245971679688	584.1549682617188	840.140625	707.6797485351562	530.9791870117188	823.7449951171875	661.7403564453125	486.7540893554688	945.9605102539062	687.2899169921875	613.5476684570312	655.394775390625	694.10595703125	548.4593505859375	736.2592163085938	656.5684204101562	611.7574462890625	746.70556640625	674.4354858398438	613.9384155273438	1407.63720703125	1064.150634765625	630.5355224609375	1363.308471679688	1137.803344726562	614.2825317382812	1110.757934570312	1227.949951171875	558.3411865234375	1095.47412109375	1149.536865234375	681.8721923828125	873.7623291015625	1185.104736328125	653.3012084960938	879.190185546875	1265.668579101562	634.7506103515625	1042.850463867188	1242.560546875	675.68603515625	691.5126953125	1202.935180664062	709.1912231445312	758.8873291015625	1211.201538085938	670.725830078125	767.1005859375	1269.7578125	568.83935546875	1586.00146484375	977.6974487304688	630.7772216796875	1584.043090820312	774.115966796875	686.6906127929688	1594.79345703125	846.8409423828125	479.1367797851562	1557.981201171875	861.6287841796875	457.7335510253906	932.6041870117188	807.7261962890625	724.312744140625	937.473876953125	1019.379211425781	603.3109741210938	934.5469970703125	798.3401489257812	607.7841186523438	468.5924682617188	864.0477294921875	566.1744995117188	603.6806030273438	822.1279296875	565.160400390625	40.79452514648438	987.72900390625	586.5899658203125	240.5348510742188	918.2808837890625	782.7890014648438	33.59577178955078	972.1482543945312	729.4396362304688	26.36528587341309	1033.790771484375	677.9166870117188	39.57220077514648	934.9484252929688	544.889404296875	33.20955657958984	1058.873168945312	799.48291015625	494.0414428710938	1057.9814453125	739.0902709960938	743.2318115234375	1097.56640625	515.7957763671875	214.4231719970703	1268.795288085938	751.842041015625	384.436767578125	1086.287719726562	591.169189453125	75.29252624511719	1149.71533203125	535.2543334960938	113.4778289794922	1138.16650390625	571.4679565429688	126.4016265869141	1251.4599609375	461.358154296875	254.4448852539062	1244.433227539062	647.3525390625	936.2664794921875	1133.699829101562	nan	nan	nan	
80	0.79	521.1597290039062	989.361572265625	1079.398071289062	442.4203186035156	983.5961303710938	922.4268798828125	497.3486328125	1054.688232421875	986.888916015625	716.0238037109375	1231.30419921875	876.6325073242188	475.9348754882812	1166.064453125	989.942138671875	497.7046508789062	1410.106567382812	939.3527221679688	651.6779174804688	1330.466552734375	891.1460571289062	491.8406982421875	1277.353271484375	1034.813842773438	443.8182067871094	1363.982177734375	854.4412231445312	506.9229431152344	1366.150512695312	774.831787109375	459.0161743164062	1246.882080078125	720.565185546875	471.0479736328125	1045.042236328125	699.5556640625	436.7738647460938	1027.27587890625	778.5982055664062	594.6998291015625	844.7349853515625	699.3525390625	541.8047485351562	827.5297241210938	653.45751953125	494.4743957519531	948.2100830078125	680.93798828125	629.3626708984375	661.1751098632812	682.5701293945312	561.716552734375	740.6348266601562	646.9380493164062	624.8011474609375	752.7239379882812	664.40234375	621.5824584960938	1407.997192382812	1059.269165039062	638.9752197265625	1363.659057617188	1132.515014648438	621.7613525390625	1111.395141601562	1222.935302734375	565.27685546875	1096.417358398438	1144.888549804688	687.7049560546875	873.9688110351562	1179.933837890625	659.4183349609375	879.5311279296875	1260.600463867188	641.87939453125	1043.35888671875	1237.496337890625	680.5053100585938	691.8173217773438	1197.675170898438	714.4102783203125	758.9303588867188	1205.889038085938	676.2017211914062	767.3723754882812	1264.569580078125	576.6787719726562	1586.733642578125	972.9037475585938	635.78076171875	1583.69189453125	768.522216796875	692.7822265625	1594.221435546875	840.4374389648438	485.2616577148438	1559.101440429688	858.2451782226562	460.0056457519531	932.5554809570312	806.4405517578125	732.0296630859375	938.3182373046875	1010.841125488281	605.258544921875	935.0311889648438	793.0137329101562	607.374267578125	468.1077575683594	862.4877319335938	566.5693359375	603.34619140625	820.5780639648438	565.1080322265625	40.77766036987305	987.8114624023438	586.2874755859375	240.4213256835938	917.9418334960938	782.7623901367188	33.61675262451172	972.1176147460938	729.456787109375	26.3835563659668	1033.771606445312	677.88427734375	39.57147216796875	934.8942260742188	544.8565673828125	33.28427886962891	1059.063598632812	813.919921875	497.8094787597656	1042.7275390625	751.2062377929688	745.8131103515625	1086.930908203125	547.1903076171875	206.1268310546875	1259.827392578125	770.373291015625	386.2422790527344	1071.356811523438	627.925537109375	73.49521636962891	1137.306640625	569.3670654296875	107.8716049194336	1127.595581054688	608.0592651367188	122.5920181274414	1239.979370117188	489.6636962890625	243.2250518798828	1237.76708984375	658.2760009765625	937.1405639648438	1127.19140625	nan	nan	nan	
